<svg xmlns="http://www.w3.org/2000/svg" width="960" height="388" viewBox="0 0 960 388" fill="none" role="img" aria-labelledby="title desc">
<title id="title">Andi Dazai — Marketing mind. Builder instinct.</title><desc id="desc">Marketing, creative automation, and code. A geometric system turns one brief into multiple outputs.</desc>
<defs><pattern id="grid" width="24" height="24" patternUnits="userSpaceOnUse"><circle cx="1" cy="1" r=".65" fill="#293B38"/></pattern></defs>
<rect width="960" height="388" rx="16" fill="#0D1716"/><rect x=".5" y=".5" width="959" height="387" rx="15.5" stroke="#2D4540"/>
<rect x="610" y="1" width="349" height="386" fill="url(#grid)"/>
<path d="M32 40h24m-24 7h16m-16 7h24" stroke="#A3F7BF" stroke-width="3"/>
<text x="70" y="52" font-family="Segoe UI,Arial,sans-serif" font-size="17" font-weight="700" letter-spacing="3" fill="#EAF4EF">ADRP</text>
<text x="928" y="51" text-anchor="end" font-family="Consolas,monospace" font-size="14" fill="#A8BBB3">MARKETING + CODE</text>
<path d="M32 76H928" stroke="#2D4540"/>
<text x="32" y="130" font-family="Consolas,monospace" font-size="14" letter-spacing="2" fill="#A8BBB3">ANDI DAZAI / @ADRPBIZZ</text>
<text x="29" y="196" font-family="Segoe UI,Arial,sans-serif" font-size="57" font-weight="700" letter-spacing="-2.2" fill="#F0F6F2">Marketing mind.</text>
<text x="29" y="261" font-family="Segoe UI,Arial,sans-serif" font-size="57" font-weight="700" letter-spacing="-2.2" fill="#A3F7BF">Builder instinct.</text>
<text x="32" y="305" font-family="Segoe UI,Arial,sans-serif" font-size="19" fill="#B6C7BF">I turn campaign ideas into useful tools.</text>
<g transform="translate(650 84) scale(.85)"><path d="M114 40V200M30 172H198" stroke="#37584D" stroke-dasharray="4 6"/>
<path d="M114 4 216 61 114 118 12 61Z" fill="#142B23" stroke="#518169"/>
<path d="M114 39 216 96 114 153 12 96Z" fill="#1E3D30" stroke="#70AF8A"/>
<path d="M114 74 216 131 114 188 12 131Z" fill="#A3F7BF" stroke="#C1FAD2"/>
<path d="m61 131 53-29 53 29-53 29Z" fill="#0D1716"/>
<path d="m103 124-12 7 12 7m22-14 12 7-12 7m-8-19-7 24" stroke="#A3F7BF" stroke-width="2.2" stroke-linecap="round" stroke-linejoin="round"/>
<path d="M114 188v33m0 0H35v20m79-20v20m0-20h79v20" stroke="#A3F7BF" stroke-width="1.5"/>
<rect x="23" y="241" width="24" height="24" rx="5" fill="#1E3D30" stroke="#70AF8A"/><rect x="102" y="241" width="24" height="24" rx="5" fill="#A3F7BF"/><rect x="181" y="241" width="24" height="24" rx="5" fill="#1E3D30" stroke="#70AF8A"/></g>
<path d="M32 341H928" stroke="#2D4540"/>
<circle cx="37" cy="365" r="4" fill="#A3F7BF"/>
<text x="50" y="370" font-family="Consolas,monospace" font-size="13" fill="#B6C7BF">THINK. BUILD. REFINE.</text>
<text x="928" y="370" text-anchor="end" font-family="Consolas,monospace" font-size="13" fill="#B6C7BF">CREATIVE / SYSTEMS / MEASUREMENT</text>
</svg>
